<?xml version="1.0" standalone="no"?><!DOCTYPE svg PUBLIC "-//W3C//DTD SVG 1.1//EN" "http://www.w3.org/Graphics/SVG/1.1/DTD/svg11.dtd"><svg t="1556445335042" class="icon" style="" viewBox="0 0 1024 1024" version="1.1" xmlns="http://www.w3.org/2000/svg" p-id="8255" xmlns:xlink="http://www.w3.org/1999/xlink" width="200" height="200"><defs><style type="text/css"></style></defs><path d="M706.2 928H96V256h221.9V96.3l388.3 0.1v332.4H928v499.3H706.2v-0.1zM317.9 311.5H151.4v560.9h55.5V761.5h55.5v110.9h55.5V311.5z m332.7 117.2v-277H373.4v720.7h83.1V761.5h111v110.9h83.2V428.7h-0.1z m221.9 55.5H706.2v388.2h55.4V761.5h55.5v110.9h55.4V484.2zM761.6 650.7h55.5v55.4h-55.5v-55.4z m0-111h55.5v55.5h-55.5v-55.5z m-305.1 111h111v55.4h-111v-55.4z m0-111h111v55.5h-111v-55.5z m0-111h111v55.4h-111v-55.4z m0-110.9h111v55.5h-111v-55.5z m0-117.3h111V256h-111v-55.5zM206.9 650.7h55.5v55.4h-55.5v-55.4z m0-111h55.5v55.5h-55.5v-55.5z m0-111h55.5v55.4h-55.5v-55.4z" p-id="8256"></path></svg>